<?xml version="1.0"?>
<svg xmlns="http://www.w3.org/2000/svg" height="25px" viewBox="0 0 512.00025 512" width="12px" class=""><g><path d="m506.140625 477.859375-120.496094-120.496094c32.597657-39.078125 50.355469-87.851562 50.355469-139.363281 0-120.480469-97.5-218-218-218-120.480469 0-218 97.5-218 218 0 120.480469 97.5 218 218 218 51.511719 0 100.285156-17.757812 139.363281-50.355469l120.496094 120.496094c7.808594 7.8125 20.472656 7.8125 28.28125 0 7.8125-7.808594 7.8125-20.472656 0-28.28125zm-288.140625-81.859375c-98.148438 0-178-79.851562-178-178s79.851562-178 178-178 178 79.851562 178 178-79.851562 178-178 178zm0 0" data-original="#000000" class="active-path" data-old_color="#000000" fill="#747474"/></g> </svg>
